<svg xmlns="http://www.w3.org/2000/svg" width="240" height="240" viewBox="0 0 240 240" role="img" aria-labelledby="title desc">
  <title id="title">Monograma MTA</title>
  <desc id="desc">Símbolo com as iniciais MTA, folha e molécula em azul-marinho e verde-petróleo.</desc>
  <defs>
    <linearGradient id="g" x1="36" y1="42" x2="206" y2="201" gradientUnits="userSpaceOnUse">
      <stop stop-color="#011E3B"/>
      <stop offset="1" stop-color="#0E7C86"/>
    </linearGradient>
  </defs>
  <circle cx="120" cy="120" r="91" fill="none" stroke="#011E3B" stroke-width="8" stroke-linecap="round" stroke-dasharray="440 62" transform="rotate(-24 120 120)"/>
  <path d="M45 157V70l55 69 55-69v87h-18V120l-37 46-37-46v37H45Z" fill="#011E3B"/>
  <path d="M91 70h88v19h-34v86h-20V89H91V70Z" fill="#0E7C86" opacity=".96"/>
  <path d="M157 155c31-11 47-33 48-68-35 4-60 24-70 57-5 16-5 32-5 32s12-14 27-21Z" fill="#0E7C86"/>
  <path d="M140 172c14-33 34-57 61-75" fill="none" stroke="#F7FAFA" stroke-width="5" stroke-linecap="round" opacity=".9"/>
  <g fill="#0E7C86" stroke="#0E7C86" stroke-width="4">
    <circle cx="118" cy="29" r="7"/>
    <circle cx="94" cy="51" r="6"/>
    <circle cx="142" cy="53" r="6"/>
    <circle cx="119" cy="75" r="5"/>
    <path d="M118 29 94 51m24-22 24 24M94 51l25 24m23-22-23 22" fill="none" stroke-linecap="round"/>
  </g>
</svg>