<svg xmlns="http://www.w3.org/2000/svg" width="720" height="720" viewBox="0 0 720 720" fill="none">
  <g opacity="0.22" stroke="#0E7C86" stroke-width="1.4">
    <path d="M-34 609c174-116 339-120 498-12 113 76 211 93 312 31"/>
    <path d="M-18 632c164-96 318-96 463 0 112 75 224 82 336 22"/>
    <path d="M-27 583c183-134 356-145 521-31 105 72 202 82 292 30"/>
  </g>
  <g opacity="0.14" fill="#0E7C86">
    <path d="M194 346c61-25 94-72 99-140-69 5-119 46-141 112-11 34-9 66-9 66s24-27 51-38Z"/>
    <path d="M101 465c42-17 65-50 69-97-48 3-83 32-99 79-7 24-6 46-6 46s17-19 36-28Z"/>
  </g>
  <g opacity="0.10" stroke="#011E3B" stroke-width="1.6">
    <path d="M58 122h42l21 36-21 36H58l-21-36 21-36Z"/>
    <path d="M121 158l62 34m0 0h43l21 36-21 36h-43l-21-36 21-36Z"/>
    <path d="M79 122V82m0 0h42l21-36"/>
  </g>
</svg>